<svg width="20" height="15" viewBox="0 0 20 15" fill="none" xmlns="http://www.w3.org/2000/svg">
<path d="M1.92993 2.96809L1.0238 3.83031H2.2746H14.3337C15.7112 3.83031 17.0279 4.35281 17.9952 5.276C18.9616 6.19844 19.5 7.44442 19.5 8.7384C19.5 10.0324 18.9616 11.2784 17.9952 12.2008C17.0279 13.124 15.7112 13.6465 14.3337 13.6465H10.0007C9.9492 13.6465 9.90421 13.6267 9.87456 13.5984C9.84571 13.5709 9.8341 13.5387 9.8341 13.5102C9.8341 13.4818 9.84571 13.4496 9.87456 13.422C9.90421 13.3937 9.94919 13.374 10.0007 13.374H14.3337C15.6082 13.374 16.8349 12.891 17.7429 12.0244C18.6516 11.1571 19.1668 9.97556 19.1668 8.7384C19.1668 7.50124 18.6516 6.31975 17.7429 5.45239C16.8349 4.5858 15.6082 4.1028 14.3337 4.1028H2.2746H1.0238L1.92993 4.96502L4.12977 7.05827L4.13071 7.05916C4.14532 7.07299 4.15558 7.08815 4.16211 7.10313C4.16862 7.11804 4.17163 7.13314 4.17163 7.14779C4.17163 7.16243 4.16862 7.17753 4.16212 7.19244L4.16211 7.19245C4.15558 7.20742 4.14532 7.22258 4.13071 7.23641L4.1307 7.23642C4.11609 7.25025 4.0975 7.26236 4.07546 7.27095L4.25114 7.7216L4.07545 7.27095C4.05338 7.27956 4.02899 7.28418 4.00391 7.28404L4.00391 7.28401L3.99838 7.28404C3.97329 7.28418 3.94891 7.27956 3.92684 7.27095L3.74523 7.7368L3.92683 7.27095C3.90503 7.26245 3.88662 7.25053 3.87208 7.23689C3.87192 7.23673 3.87175 7.23658 3.87159 7.23642L0.5453 4.06169C0.532612 4.04842 0.523691 4.03417 0.517995 4.02015L0.512561 4.00677L0.506365 3.99373C0.501864 3.98426 0.5 3.97508 0.5 3.96656C0.5 3.95804 0.501864 3.94886 0.506365 3.93939L0.512561 3.92635L0.517995 3.91297C0.523692 3.89895 0.532614 3.88469 0.545302 3.87143L3.87306 0.695296C3.90322 0.66651 3.9489 0.646484 4.00114 0.646484C4.05339 0.646484 4.09907 0.66651 4.12923 0.695296C4.15859 0.723326 4.17049 0.756231 4.17049 0.785333C4.17049 0.814394 4.15863 0.847247 4.12935 0.875251C4.12931 0.87529 4.12927 0.87533 4.12923 0.87537L1.92993 2.96809Z" fill="white" fill-opacity="0.8" stroke="white"/>
</svg>
